<svg xmlns="http://www.w3.org/2000/svg" viewBox="0 0 100 100">
  <defs>
    <linearGradient id="g" x1="0%" y1="0%" x2="100%" y2="100%">
      <stop offset="0%" stop-color="#667eea"/>
      <stop offset="100%" stop-color="#764ba2"/>
    </linearGradient>
  </defs>
  <rect width="100" height="100" rx="20" fill="#0a0a0f"/>
  <g transform="translate(50,48)" fill="url(#g)">
    <!-- Robot head -->
    <rect x="-22" y="-24" width="44" height="36" rx="10" fill="url(#g)"/>
    <!-- Eyes -->
    <circle cx="-9" cy="-10" r="5" fill="#0a0a0f"/>
    <circle cx="9" cy="-10" r="5" fill="#0a0a0f"/>
    <!-- Eye glow -->
    <circle cx="-7" cy="-11" r="2" fill="#a5b4fc"/>
    <circle cx="11" cy="-11" r="2" fill="#a5b4fc"/>
    <!-- Mouth/speaker -->
    <rect x="-12" y="0" width="24" height="4" rx="2" fill="#0a0a0f"/>
    <!-- Antenna -->
    <line x1="0" y1="-24" x2="0" y2="-32" stroke="url(#g)" stroke-width="3" stroke-linecap="round"/>
    <circle cx="0" cy="-34" r="4" fill="#a5b4fc"/>
    <!-- Chat bubble -->
    <path d="M14,8 L28,8 C32,8 34,10 34,14 L34,22 C34,26 32,28 28,28 L22,28 L18,34 L18,28 L14,28 C10,28 8,26 8,22 L8,14 C8,10 10,8 14,8 Z" fill="#a5b4fc" opacity="0.9"/>
    <circle cx="16" cy="18" r="2" fill="#0a0a0f"/>
    <circle cx="22" cy="18" r="2" fill="#0a0a0f"/>
    <circle cx="28" cy="18" r="2" fill="#0a0a0f"/>
  </g>
</svg>
